<svg xmlns="http://www.w3.org/2000/svg" viewBox="0 0 820 670" role="img" aria-label="Three logical AI responsibilities and deterministic controls"><defs><marker id="arrow" markerWidth="8" markerHeight="8" refX="7" refY="4" orient="auto"><path d="M0,0 L8,4 L0,8" fill="#527068"/></marker></defs><style>text{font-family:Arial,sans-serif;fill:#193c32;font-size:14px}.edge{fill:none;stroke:#527068;stroke-width:1.6;marker-end:url(#arrow)}.assoc{fill:none;stroke:#527068;stroke-width:1.3}</style><rect x="240" y="15" width="340" height="55" rx="8" fill="#f0f7f3" stroke="#98b5a8"/><text text-anchor="middle"><tspan x="410.0" y="47.5">Authenticated Ledgerly API</tspan></text><rect x="20" y="150" width="250" height="95" rx="8" fill="#f0f7f3" stroke="#98b5a8"/><text text-anchor="middle"><tspan x="145.0" y="193.5">Document Intelligence</tspan><tspan x="145.0" y="211.5">Structured extraction</tspan></text><path class="edge" d="M410,70V110H145V150"/><rect x="285" y="150" width="250" height="95" rx="8" fill="#f0f7f3" stroke="#98b5a8"/><text text-anchor="middle"><tspan x="410.0" y="193.5">Classification and Compliance</tspan><tspan x="410.0" y="211.5">Category and review guidance</tspan></text><path class="edge" d="M410,70V110H410V150"/><rect x="550" y="150" width="250" height="95" rx="8" fill="#f0f7f3" stroke="#98b5a8"/><text text-anchor="middle"><tspan x="675.0" y="193.5">Finance Copilot</tspan><tspan x="675.0" y="211.5">Explanations and scoped Q&amp;A</tspan></text><path class="edge" d="M410,70V110H675V150"/><rect x="140" y="325" width="540" height="95" rx="8" fill="#f0f7f3" stroke="#98b5a8"/><text text-anchor="middle"><tspan x="410.0" y="359.5">Deterministic controls</tspan><tspan x="410.0" y="377.5">Validation, duplicates, vendor lookup, confidence gate,</tspan><tspan x="410.0" y="395.5">balances, reconciliation and lifecycle eligibility</tspan></text><path class="edge" d="M145,245V280H410V325"/><path class="edge" d="M410,245V280H410V325"/><path class="edge" d="M675,245V280H410V325"/><rect x="35" y="520" width="345" height="80" rx="8" fill="#f0f7f3" stroke="#98b5a8"/><text text-anchor="middle"><tspan x="207.5" y="556.0">SQLite and retained evidence</tspan><tspan x="207.5" y="574.0">Reporting source of truth</tspan></text><rect x="440" y="520" width="345" height="80" rx="8" fill="#f0f7f3" stroke="#98b5a8"/><text text-anchor="middle"><tspan x="612.5" y="556.0">Human authority</tspan><tspan x="612.5" y="574.0">Approve, reject, amend and record payment state</tspan></text><path class="edge" d="M330,420V475H207V520"/><path class="edge" d="M490,420V475H612V520"/></svg>